# Blender 4.3.2
# www.blender.org
mtllib testpistol.mtl
o Cylinder
v 0.000000 -0.406897 -1.000000
v 0.000000 1.000000 -1.000000
v 0.866025 -0.406897 -0.500000
v 0.866025 1.000000 -0.500000
v 0.866025 -0.406897 0.500000
v 0.866025 1.000000 0.500000
v 0.000000 -0.406897 1.000000
v 0.000000 1.000000 1.000000
v -0.866025 -0.406897 0.500000
v -0.866025 1.000000 0.500000
v -0.866025 -0.406897 -0.500000
v -0.866025 1.000000 -0.500000
v 0.000000 -1.204448 -1.000000
v 0.866025 -1.204448 -0.500000
v 0.866025 -1.204448 0.500000
v 0.000000 -1.204448 1.000000
v -0.866025 -1.204448 0.500000
v -0.866025 -1.204448 -0.500000
vn 0.5000 -0.0000 -0.8660
vn 1.0000 -0.0000 -0.0000
vn 0.5000 -0.0000 0.8660
vn -0.5000 -0.0000 0.8660
vn -0.0000 1.0000 -0.0000
vn -1.0000 -0.0000 -0.0000
vn -0.5000 -0.0000 -0.8660
vn -0.0000 -1.0000 -0.0000
vt 1.000000 0.648276
vt 1.000000 1.000000
vt 0.833333 1.000000
vt 0.833333 0.648276
vt 0.666667 1.000000
vt 0.666667 0.648276
vt 0.500000 1.000000
vt 0.500000 0.648276
vt 0.333333 1.000000
vt 0.333333 0.648276
vt 0.457846 0.370000
vt 0.250000 0.490000
vt 0.042154 0.370000
vt 0.042154 0.130000
vt 0.250000 0.010000
vt 0.457846 0.130000
vt 0.166667 1.000000
vt 0.166667 0.648276
vt -0.000000 1.000000
vt -0.000000 0.648276
vt 0.750000 0.490000
vt 0.957846 0.370000
vt 0.957846 0.130000
vt 0.750000 0.010000
vt 0.542154 0.130000
vt 0.542154 0.370000
s 0
f 1/1/1 2/2/1 4/3/1 3/4/1
f 3/4/2 4/3/2 6/5/2 5/6/2
f 5/6/3 6/5/3 8/7/3 7/8/3
f 7/8/4 8/7/4 10/9/4 9/10/4
f 4/11/5 2/12/5 12/13/5 10/14/5 8/15/5 6/16/5
f 9/10/6 10/9/6 12/17/6 11/18/6
f 11/18/7 12/17/7 2/19/7 1/20/7
f 3/4/2 5/6/2 15/6/2 14/4/2
f 13/21/8 14/22/8 15/23/8 16/24/8 17/25/8 18/26/8
f 9/10/6 11/18/6 18/18/6 17/10/6
f 1/1/1 3/4/1 14/4/1 13/1/1
f 5/6/3 7/8/3 16/8/3 15/6/3
f 11/18/7 1/20/7 13/20/7 18/18/7
f 7/8/4 9/10/4 17/10/4 16/8/4
o Cylinder.001
v 0.000000 0.927750 2.971714
v 0.000000 0.927750 0.971715
v 0.866025 1.427750 2.971714
v 0.866025 1.427750 0.971715
v 0.866025 2.427750 2.971715
v 0.866025 2.427750 0.971715
v 0.000000 2.927750 2.971715
v 0.000000 2.927750 0.971715
v -0.866025 2.427750 2.971715
v -0.866025 2.427750 0.971715
v -0.866025 1.427750 2.971714
v -0.866025 1.427750 0.971715
v 0.000000 0.927750 5.867056
v 0.866025 1.427750 5.867056
v 0.866025 2.427750 5.867057
v 0.000000 2.927750 5.867057
v -0.866025 2.427750 5.867057
v -0.866025 1.427750 5.867056
vn 0.5000 -0.8660 -0.0000
vn 1.0000 -0.0000 -0.0000
vn 0.5000 0.8660 -0.0000
vn -0.5000 0.8660 -0.0000
vn -0.0000 -0.0000 -1.0000
vn -1.0000 -0.0000 -0.0000
vn -0.5000 -0.8660 -0.0000
vn -0.0000 -0.0000 1.0000
vt 1.000000 0.500000
vt 1.000000 1.000000
vt 0.833333 1.000000
vt 0.833333 0.500000
vt 0.666667 1.000000
vt 0.666667 0.500000
vt 0.500000 1.000000
vt 0.500000 0.500000
vt 0.333333 1.000000
vt 0.333333 0.500000
vt 0.457846 0.370000
vt 0.250000 0.490000
vt 0.042154 0.370000
vt 0.042154 0.130000
vt 0.250000 0.010000
vt 0.457846 0.130000
vt 0.166667 1.000000
vt 0.166667 0.500000
vt -0.000000 1.000000
vt -0.000000 0.500000
vt 0.750000 0.490000
vt 0.957846 0.370000
vt 0.957846 0.130000
vt 0.750000 0.010000
vt 0.542154 0.130000
vt 0.542154 0.370000
s 0
f 19/27/9 20/28/9 22/29/9 21/30/9
f 21/30/10 22/29/10 24/31/10 23/32/10
f 23/32/11 24/31/11 26/33/11 25/34/11
f 25/34/12 26/33/12 28/35/12 27/36/12
f 22/37/13 20/38/13 30/39/13 28/40/13 26/41/13 24/42/13
f 27/36/14 28/35/14 30/43/14 29/44/14
f 29/44/15 30/43/15 20/45/15 19/46/15
f 25/34/12 27/36/12 35/36/12 34/34/12
f 31/47/16 32/48/16 33/49/16 34/50/16 35/51/16 36/52/16
f 21/30/10 23/32/10 33/32/10 32/30/10
f 27/36/14 29/44/14 36/44/14 35/36/14
f 19/27/9 21/30/9 32/30/9 31/27/9
f 23/32/11 25/34/11 34/34/11 33/32/11
f 29/44/15 19/46/15 31/46/15 36/44/15
o Sphere
v 0.000000 0.921951 -0.989950
v 0.000000 0.921951 0.989949
v 0.773974 1.294677 -0.989950
v 1.094564 1.039015 -0.000000
v 0.773974 1.294677 0.989949
v 0.965129 2.132185 -0.989949
v 1.364899 2.223430 0.000000
v 0.965129 2.132185 0.989949
v 0.429523 2.803815 -0.989949
v 0.607437 3.173257 0.000000
v 0.429523 2.803814 0.989950
v 0.000000 1.911901 1.400000
v 0.000000 1.911901 -1.400000
v -0.429523 2.803815 -0.989949
v -0.607437 3.173257 0.000000
v -0.429523 2.803814 0.989950
v -0.965130 2.132185 -0.989949
v -1.364899 2.223430 0.000000
v -0.965130 2.132185 0.989949
v -0.773974 1.294677 -0.989950
v -1.094564 1.039015 -0.000000
v -0.773974 1.294677 0.989949
v 0.000000 0.511901 -0.000000
vn 0.4065 -0.8441 0.3496
vn 0.1812 -0.3763 -0.9086
vn 0.1812 -0.3763 0.9086
vn 0.4065 -0.8441 -0.3496
vn 0.9134 -0.2085 0.3496
vn 0.4072 -0.0929 -0.9086
vn 0.4072 -0.0929 0.9086
vn 0.9134 -0.2085 -0.3496
vn 0.7325 0.5841 0.3496
vn 0.3266 0.2604 -0.9086
vn 0.3266 0.2604 0.9086
vn 0.7325 0.5841 -0.3496
vn -0.0000 0.9369 0.3496
vn -0.0000 0.4177 -0.9086
vn -0.0000 0.4177 0.9086
vn -0.0000 0.9369 -0.3496
vn -0.7325 0.5841 -0.3496
vn -0.7325 0.5841 0.3496
vn -0.3266 0.2604 -0.9086
vn -0.3266 0.2604 0.9086
vn -0.4072 -0.0929 0.9086
vn -0.9134 -0.2085 -0.3496
vn -0.9134 -0.2085 0.3496
vn -0.4072 -0.0929 -0.9086
vn -0.1812 -0.3763 0.9086
vn -0.4065 -0.8441 -0.3496
vn -0.4065 -0.8441 0.3496
vn -0.1812 -0.3763 -0.9086
vt 0.714286 0.250000
vt 0.714286 0.500000
vt 0.571429 0.500000
vt 0.571429 0.250000
vt 0.714286 0.750000
vt 0.642857 1.000000
vt 0.571429 0.750000
vt 0.642857 0.000000
vt 0.428571 0.500000
vt 0.428571 0.250000
vt 0.500000 1.000000
vt 0.428571 0.750000
vt 0.500000 0.000000
vt 0.285714 0.500000
vt 0.285714 0.250000
vt 0.357143 1.000000
vt 0.285714 0.750000
vt 0.357143 0.000000
vt 0.142857 0.500000
vt 0.142857 0.250000
vt 0.214286 1.000000
vt 0.142857 0.750000
vt 0.214286 0.000000
vt 0.000000 0.750000
vt 0.000000 0.500000
vt 0.000000 0.250000
vt 0.071429 1.000000
vt 0.071429 0.000000
vt 0.928571 0.000000
vt 1.000000 0.250000
vt 0.857143 0.250000
vt 1.000000 0.500000
vt 1.000000 0.750000
vt 0.857143 0.750000
vt 0.857143 0.500000
vt 0.928571 1.000000
vt 0.785714 0.000000
vt 0.785714 1.000000
s 0
f 38/53/17 59/54/17 40/55/17 41/56/17
f 37/57/18 49/58/18 39/59/18
f 48/60/19 38/53/19 41/56/19
f 59/54/20 37/57/20 39/59/20 40/55/20
f 41/56/21 40/55/21 43/61/21 44/62/21
f 39/59/22 49/63/22 42/64/22
f 48/65/23 41/56/23 44/62/23
f 40/55/24 39/59/24 42/64/24 43/61/24
f 44/62/25 43/61/25 46/66/25 47/67/25
f 42/64/26 49/68/26 45/69/26
f 48/70/27 44/62/27 47/67/27
f 43/61/28 42/64/28 45/69/28 46/66/28
f 47/67/29 46/66/29 51/71/29 52/72/29
f 45/69/30 49/73/30 50/74/30
f 48/75/31 47/67/31 52/72/31
f 46/66/32 45/69/32 50/74/32 51/71/32
f 51/71/33 50/74/33 53/76/33 54/77/33
f 52/72/34 51/71/34 54/77/34 55/78/34
f 50/74/35 49/79/35 53/76/35
f 48/80/36 52/72/36 55/78/36
f 48/81/37 55/82/37 58/83/37
f 54/84/38 53/85/38 56/86/38 57/87/38
f 55/82/39 54/84/39 57/87/39 58/83/39
f 53/85/40 49/88/40 56/86/40
f 48/89/41 58/83/41 38/53/41
f 57/87/42 56/86/42 37/57/42 59/54/42
f 58/83/43 57/87/43 59/54/43 38/53/43
f 56/86/44 49/90/44 37/57/44
o Torus
v 1.250000 2.000000 6.000000
v 1.125000 2.000000 6.216506
v 0.875000 2.000000 6.216506
v 0.750000 2.000000 6.000000
v 0.875000 2.000000 5.783494
v 1.125000 2.000000 5.783494
v 0.625000 3.082532 6.000000
v 0.562500 2.974279 6.216506
v 0.437500 2.757772 6.216506
v 0.375000 2.649519 6.000000
v 0.437500 2.757772 5.783494
v 0.562500 2.974279 5.783494
v -0.625000 3.082532 6.000000
v -0.562500 2.974279 6.216506
v -0.437500 2.757772 6.216506
v -0.375000 2.649519 6.000000
v -0.437500 2.757772 5.783494
v -0.562500 2.974279 5.783494
v -1.250000 2.000000 6.000000
v -1.125000 2.000000 6.216506
v -0.875000 2.000000 6.216506
v -0.750000 2.000000 6.000000
v -0.875000 2.000000 5.783494
v -1.125000 2.000000 5.783494
v -0.625000 0.917468 6.000000
v -0.562500 1.025721 6.216506
v -0.437500 1.242228 6.216506
v -0.375000 1.350481 6.000000
v -0.437500 1.242228 5.783494
v -0.562500 1.025721 5.783494
v 0.625000 0.917468 6.000000
v 0.562500 1.025721 6.216506
v 0.437500 1.242228 6.216506
v 0.375000 1.350481 6.000000
v 0.437500 1.242228 5.783494
v 0.562500 1.025721 5.783494
vn 0.7746 0.4472 0.4472
vn -0.0000 -0.0000 1.0000
vn -0.7746 -0.4472 0.4472
vn -0.7746 -0.4472 -0.4472
vn -0.0000 -0.0000 -1.0000
vn 0.7746 0.4472 -0.4472
vn -0.0000 0.8944 0.4472
vn -0.0000 -0.8944 0.4472
vn -0.0000 -0.8944 -0.4472
vn -0.0000 0.8944 -0.4472
vn -0.7746 0.4472 0.4472
vn 0.7746 -0.4472 0.4472
vn 0.7746 -0.4472 -0.4472
vn -0.7746 0.4472 -0.4472
vt 0.500000 0.500000
vt 0.666667 0.500000
vt 0.666667 0.666667
vt 0.500000 0.666667
vt 0.666667 0.833333
vt 0.500000 0.833333
vt 0.666667 1.000000
vt 0.500000 1.000000
vt 0.500000 -0.000000
vt 0.666667 -0.000000
vt 0.666667 0.166667
vt 0.500000 0.166667
vt 0.666667 0.333333
vt 0.500000 0.333333
vt 0.833333 0.500000
vt 0.833333 0.666667
vt 0.833333 0.833333
vt 0.833333 1.000000
vt 0.833333 -0.000000
vt 0.833333 0.166667
vt 0.833333 0.333333
vt 1.000000 0.500000
vt 1.000000 0.666667
vt 1.000000 0.833333
vt 1.000000 1.000000
vt 1.000000 -0.000000
vt 1.000000 0.166667
vt 1.000000 0.333333
vt -0.000000 0.500000
vt 0.166667 0.500000
vt 0.166667 0.666667
vt -0.000000 0.666667
vt 0.166667 0.833333
vt -0.000000 0.833333
vt 0.166667 1.000000
vt -0.000000 1.000000
vt -0.000000 -0.000000
vt 0.166667 -0.000000
vt 0.166667 0.166667
vt -0.000000 0.166667
vt 0.166667 0.333333
vt -0.000000 0.333333
vt 0.333333 0.500000
vt 0.333333 0.666667
vt 0.333333 0.833333
vt 0.333333 1.000000
vt 0.333333 -0.000000
vt 0.333333 0.166667
vt 0.333333 0.333333
s 0
f 60/91/45 66/92/45 67/93/45 61/94/45
f 61/94/46 67/93/46 68/95/46 62/96/46
f 62/96/47 68/95/47 69/97/47 63/98/47
f 63/99/48 69/100/48 70/101/48 64/102/48
f 64/102/49 70/101/49 71/103/49 65/104/49
f 65/104/50 71/103/50 66/92/50 60/91/50
f 66/92/51 72/105/51 73/106/51 67/93/51
f 67/93/46 73/106/46 74/107/46 68/95/46
f 68/95/52 74/107/52 75/108/52 69/97/52
f 69/100/53 75/109/53 76/110/53 70/101/53
f 70/101/49 76/110/49 77/111/49 71/103/49
f 71/103/54 77/111/54 72/105/54 66/92/54
f 72/105/55 78/112/55 79/113/55 73/106/55
f 73/106/46 79/113/46 80/114/46 74/107/46
f 74/107/56 80/114/56 81/115/56 75/108/56
f 75/109/57 81/116/57 82/117/57 76/110/57
f 76/110/49 82/117/49 83/118/49 77/111/49
f 77/111/58 83/118/58 78/112/58 72/105/58
f 78/119/47 84/120/47 85/121/47 79/122/47
f 79/122/46 85/121/46 86/123/46 80/124/46
f 80/124/45 86/123/45 87/125/45 81/126/45
f 81/127/50 87/128/50 88/129/50 82/130/50
f 82/130/49 88/129/49 89/131/49 83/132/49
f 83/132/48 89/131/48 84/120/48 78/119/48
f 84/120/52 90/133/52 91/134/52 85/121/52
f 85/121/46 91/134/46 92/135/46 86/123/46
f 86/123/51 92/135/51 93/136/51 87/125/51
f 87/128/54 93/137/54 94/138/54 88/129/54
f 88/129/49 94/138/49 95/139/49 89/131/49
f 89/131/53 95/139/53 90/133/53 84/120/53
f 90/133/56 60/91/56 61/94/56 91/134/56
f 91/134/46 61/94/46 62/96/46 92/135/46
f 92/135/55 62/96/55 63/98/55 93/136/55
f 93/137/58 63/99/58 64/102/58 94/138/58
f 94/138/49 64/102/49 65/104/49 95/139/49
f 95/139/57 65/104/57 60/91/57 90/133/57
o Torus.001
v -1.367165 -1.411840 0.811763
v -1.220990 -1.076169 0.724971
v -0.928640 -1.076169 0.551386
v -0.782465 -1.411840 0.464594
v -0.928640 -1.747512 0.551386
v -1.220990 -1.747512 0.724971
v 0.019425 -1.411840 1.589881
v 0.017348 -1.076169 1.419894
v 0.013194 -1.076169 1.079919
v 0.011118 -1.411840 0.909932
v 0.013194 -1.747512 1.079919
v 0.017348 -1.747512 1.419894
v 1.386590 -1.411840 0.778118
v 1.238338 -1.076169 0.694923
v 0.941835 -1.076169 0.528533
v 0.793583 -1.411840 0.445338
v 0.941835 -1.747512 0.528533
v 1.238338 -1.747512 0.694923
v 1.367165 -1.411840 -0.811763
v 1.220990 -1.076169 -0.724971
v 0.928640 -1.076169 -0.551386
v 0.782465 -1.411840 -0.464594
v 0.928640 -1.747512 -0.551386
v 1.220990 -1.747512 -0.724971
v -0.019425 -1.411840 -1.589881
v -0.017348 -1.076169 -1.419894
v -0.013195 -1.076169 -1.079919
v -0.011118 -1.411840 -0.909932
v -0.013195 -1.747512 -1.079919
v -0.017348 -1.747512 -1.419894
v -1.386590 -1.411840 -0.778118
v -1.238338 -1.076169 -0.694923
v -0.941835 -1.076169 -0.528533
v -0.793583 -1.411840 -0.445338
v -0.941835 -1.747512 -0.528533
v -1.238338 -1.747512 -0.694923
vn -0.4482 0.4017 0.7986
vn -0.0000 1.0000 -0.0000
vn 0.4482 0.4017 -0.7986
vn 0.4482 -0.4017 -0.7986
vn -0.0000 -1.0000 -0.0000
vn -0.4482 -0.4017 0.7986
vn 0.4675 0.4017 0.7874
vn -0.4675 0.4017 -0.7874
vn -0.4675 -0.4017 -0.7874
vn 0.4675 -0.4017 0.7874
vn 0.9157 0.4017 -0.0112
vn -0.9157 0.4017 0.0112
vn -0.9157 -0.4017 0.0112
vn 0.9157 -0.4017 -0.0112
vt 0.500000 0.500000
vt 0.666667 0.500000
vt 0.666667 0.666667
vt 0.500000 0.666667
vt 0.666667 0.833333
vt 0.500000 0.833333
vt 0.666667 1.000000
vt 0.500000 1.000000
vt 0.500000 -0.000000
vt 0.666667 -0.000000
vt 0.666667 0.166667
vt 0.500000 0.166667
vt 0.666667 0.333333
vt 0.500000 0.333333
vt 0.833333 0.500000
vt 0.833333 0.666667
vt 0.833333 0.833333
vt 0.833333 1.000000
vt 0.833333 -0.000000
vt 0.833333 0.166667
vt 0.833333 0.333333
vt 1.000000 0.500000
vt 1.000000 0.666667
vt 1.000000 0.833333
vt 1.000000 1.000000
vt 1.000000 -0.000000
vt 1.000000 0.166667
vt 1.000000 0.333333
vt -0.000000 0.500000
vt 0.166667 0.500000
vt 0.166667 0.666667
vt -0.000000 0.666667
vt 0.166667 0.833333
vt -0.000000 0.833333
vt 0.166667 1.000000
vt -0.000000 1.000000
vt -0.000000 -0.000000
vt 0.166667 -0.000000
vt 0.166667 0.166667
vt -0.000000 0.166667
vt 0.166667 0.333333
vt -0.000000 0.333333
vt 0.333333 0.500000
vt 0.333333 0.666667
vt 0.333333 0.833333
vt 0.333333 1.000000
vt 0.333333 -0.000000
vt 0.333333 0.166667
vt 0.333333 0.333333
s 0
f 96/140/59 102/141/59 103/142/59 97/143/59
f 97/143/60 103/142/60 104/144/60 98/145/60
f 98/145/61 104/144/61 105/146/61 99/147/61
f 99/148/62 105/149/62 106/150/62 100/151/62
f 100/151/63 106/150/63 107/152/63 101/153/63
f 101/153/64 107/152/64 102/141/64 96/140/64
f 102/141/65 108/154/65 109/155/65 103/142/65
f 103/142/60 109/155/60 110/156/60 104/144/60
f 104/144/66 110/156/66 111/157/66 105/146/66
f 105/149/67 111/158/67 112/159/67 106/150/67
f 106/150/63 112/159/63 113/160/63 107/152/63
f 107/152/68 113/160/68 108/154/68 102/141/68
f 108/154/69 114/161/69 115/162/69 109/155/69
f 109/155/60 115/162/60 116/163/60 110/156/60
f 110/156/70 116/163/70 117/164/70 111/157/70
f 111/158/71 117/165/71 118/166/71 112/159/71
f 112/159/63 118/166/63 119/167/63 113/160/63
f 113/160/72 119/167/72 114/161/72 108/154/72
f 114/168/61 120/169/61 121/170/61 115/171/61
f 115/171/60 121/170/60 122/172/60 116/173/60
f 116/173/59 122/172/59 123/174/59 117/175/59
f 117/176/64 123/177/64 124/178/64 118/179/64
f 118/179/63 124/178/63 125/180/63 119/181/63
f 119/181/62 125/180/62 120/169/62 114/168/62
f 120/169/66 126/182/66 127/183/66 121/170/66
f 121/170/60 127/183/60 128/184/60 122/172/60
f 122/172/65 128/184/65 129/185/65 123/174/65
f 123/177/68 129/186/68 130/187/68 124/178/68
f 124/178/63 130/187/63 131/188/63 125/180/63
f 125/180/67 131/188/67 126/182/67 120/169/67
f 126/182/70 96/140/70 97/143/70 127/183/70
f 127/183/60 97/143/60 98/145/60 128/184/60
f 128/184/69 98/145/69 99/147/69 129/185/69
f 129/186/72 99/148/72 100/151/72 130/187/72
f 130/187/63 100/151/63 101/153/63 131/188/63
f 131/188/71 101/153/71 96/140/71 126/182/71
